<svg xmlns="http://www.w3.org/2000/svg" width="1000" height="1000" viewBox="0 0 1000 1000" version="1.1"><path d="M 414.286 495.407 C 405.086 498.378, 395.417 506.145, 390.646 514.397 C 386.214 522.063, 384.781 528.306, 385.155 538.320 C 385.456 546.368, 385.927 548.419, 388.827 554.306 C 395.218 567.278, 407.216 575.983, 421.818 578.244 C 443.786 581.644, 465.612 565.191, 469.132 542.577 C 471.976 524.312, 461.971 505.622, 445.062 497.609 C 439.253 494.857, 437.353 494.474, 428.500 494.273 C 422.193 494.130, 416.944 494.549, 414.286 495.407 M 45 662.500 L 45 727 110.247 727 L 175.494 727 111 662.500 C 75.528 627.025, 46.167 598, 45.753 598 C 45.339 598, 45 627.025, 45 662.500" stroke="none" fill="#ecc41c" fill-rule="evenodd"/><path d="M 43 415 C 43 454.050, 43.339 486, 43.753 486 C 44.733 486, 185 345.728, 185 344.747 C 185 344.336, 153.050 344, 114 344 L 43 344 43 415 M 138.505 438.995 L 44.514 532.990 141.500 629.995 L 238.486 727 268.490 727 L 298.495 727 228.506 657.006 L 158.517 587.012 171.500 574 L 184.483 560.988 267.494 643.994 L 350.504 727 380 727 L 409.496 727 311.500 629 L 213.504 531 305.752 438.748 C 356.488 388.009, 398 346.159, 398 345.748 C 398 345.337, 385.030 345, 369.178 345 L 340.356 345 234.511 451.069 L 128.667 557.138 116.327 544.828 L 103.988 532.518 196.742 439.763 C 247.758 388.748, 289.648 346.556, 289.832 346.004 C 290.051 345.347, 280.189 345, 261.331 345 L 232.496 345 138.505 438.995 M 731.945 495.407 C 720.388 499.805, 711.515 507.716, 706.604 518 C 703.689 524.105, 703.500 525.199, 703.500 536 C 703.500 546.870, 703.676 547.871, 706.709 554.275 C 719.380 581.025, 754.165 586.856, 775.307 565.775 C 795.552 545.587, 789.155 509.974, 763.062 497.609 C 757.173 494.819, 755.423 494.477, 746 494.277 C 739.088 494.131, 734.285 494.517, 731.945 495.407 M 294 534.500 L 294 572 303.481 572 L 312.962 572 313.231 549.750 L 313.500 527.500 328.369 549.750 L 343.239 572 352.619 572 L 362 572 362 534.500 L 362 497 352.519 497 L 343.038 497 342.769 519.076 L 342.500 541.151 328 519.082 L 313.500 497.014 303.750 497.007 L 294 497 294 534.500 M 488.960 497.750 C 488.937 498.163, 493.100 515.036, 498.210 535.246 L 507.500 571.992 519.022 571.996 L 530.543 572 536.451 548.250 L 542.358 524.500 548.131 548 C 551.305 560.925, 553.925 571.612, 553.952 571.750 C 554.042 572.217, 577 572.003, 577 571.536 C 577 571.280, 581.024 555.643, 585.943 536.786 C 590.862 517.929, 595.186 501.262, 595.552 499.750 L 596.217 497 586.215 497 C 579.121 497, 576.083 497.363, 575.763 498.250 C 575.515 498.938, 573.120 510.616, 570.442 524.202 C 567.763 537.788, 565.457 548.790, 565.317 548.650 C 565.177 548.511, 562.579 537.845, 559.543 524.948 C 556.507 512.052, 553.784 500.488, 553.492 499.250 C 552.984 497.095, 552.523 497, 542.559 497 L 532.157 497 525.829 522.917 C 522.348 537.171, 519.386 548.719, 519.245 548.579 C 519.004 548.337, 511.014 508.808, 509.578 500.750 L 508.909 497 498.955 497 C 493.480 497, 488.982 497.337, 488.960 497.750 M 622 534.431 L 622 572 643.134 572 C 656.077 572, 665.744 571.558, 668.078 570.859 C 673.070 569.363, 678.900 564.483, 680.624 560.357 C 682.424 556.050, 682.384 546.643, 680.551 543.099 C 678.696 539.512, 672.444 534.003, 670.215 533.991 C 669.219 533.985, 670.176 532.973, 672.500 531.574 C 678.165 528.165, 680.458 523.831, 680.475 516.500 C 680.492 508.944, 677.713 504.091, 671.163 500.241 C 666.512 497.507, 666.445 497.499, 644.250 497.181 L 622 496.863 622 534.431 M 810 534.500 L 810 572 828.395 572 C 844.102 572, 847.757 571.701, 853.414 569.954 C 862.646 567.102, 869.523 561.310, 873.944 552.660 C 876.915 546.847, 877.446 544.713, 877.809 537.113 C 878.510 522.452, 873.985 511.830, 863.880 504.412 C 855.455 498.228, 849.581 497, 828.411 497 L 810 497 810 534.500 M 911.921 522.421 L 925 547.842 925 559.921 L 925 572 934.500 572 L 944 572 944 559.469 L 944 546.938 956.500 522.722 C 963.375 509.403, 969 498.167, 969 497.753 C 969 497.339, 964.360 497, 958.689 497 L 948.378 497 941.542 512.053 C 937.782 520.332, 934.403 526.745, 934.031 526.303 C 933.660 525.861, 930.463 519.103, 926.928 511.284 L 920.500 497.067 909.671 497.034 L 898.841 497 911.921 522.421 M 641 519.500 L 641 527 649 527 C 658.283 527, 661.011 525.349, 660.985 519.750 C 660.956 513.760, 658.023 512, 648.066 512 L 641 512 641 519.500 M 829 534.500 L 829 556 834.818 556 C 850.511 556, 858.989 548.459, 858.989 534.500 C 858.989 520.541, 850.511 513, 834.818 513 L 829 513 829 534.500 M 641 549 L 641 557.199 649.896 556.849 C 656.910 556.574, 659.238 556.097, 660.896 554.595 C 663.564 552.179, 663.657 547.033, 661.089 543.861 C 659.381 541.751, 658.212 541.463, 650.089 541.151 L 641 540.801 641 549" stroke="none" fill="#040404" fill-rule="evenodd"/></svg>